<?xml version="1.0" standalone="no"?><svg xmlns="http://www.w3.org/2000/svg" viewBox="0 0 1440 320"><path fill="#5000ca" fill-opacity="1" d="M0,96L34.3,80C68.6,64,137,32,206,58.7C274.3,85,343,171,411,181.3C480,192,549,128,617,112C685.7,96,754,128,823,170.7C891.4,213,960,267,1029,245.3C1097.1,224,1166,128,1234,74.7C1302.9,21,1371,11,1406,5.3L1440,0L1440,0L1405.7,0C1371.4,0,1303,0,1234,0C1165.7,0,1097,0,1029,0C960,0,891,0,823,0C754.3,0,686,0,617,0C548.6,0,480,0,411,0C342.9,0,274,0,206,0C137.1,0,69,0,34,0L0,0Z"></path></svg>